<svg xmlns="http://www.w3.org/2000/svg" xmlns:xlink="http://www.w3.org/1999/xlink" width="559" zoomAndPan="magnify" viewBox="0 0 419.25 525.000007" height="700" preserveAspectRatio="xMidYMid meet" version="1.0"><defs><g/></defs><g fill="#ffd700" fill-opacity="1"><g transform="translate(98.879032, 522.661456)"><g><path d="M 18.1875 -301.859375 C 18.1875 -318.535156 19.609375 -331.894531 22.453125 -341.9375 C 25.296875 -351.976562 29.75 -359.648438 35.8125 -364.953125 C 41.875 -370.265625 51.253906 -373.960938 63.953125 -376.046875 C 76.648438 -378.128906 95.503906 -379.171875 120.515625 -379.171875 L 162.015625 -379.171875 C 187.023438 -379.171875 205.878906 -378.128906 218.578125 -376.046875 C 231.273438 -373.960938 240.65625 -370.265625 246.71875 -364.953125 C 252.78125 -359.648438 257.234375 -351.976562 260.078125 -341.9375 C 262.921875 -331.894531 264.34375 -318.535156 264.34375 -301.859375 L 264.34375 0 L 162.578125 0 L 162.578125 -80.15625 L 119.953125 -80.15625 L 119.953125 0 L 18.1875 0 Z M 162.578125 -164.28125 L 162.578125 -264.34375 C 162.578125 -287.832031 155.378906 -299.578125 140.984375 -299.578125 C 126.960938 -299.578125 119.953125 -287.832031 119.953125 -264.34375 L 119.953125 -164.28125 Z M 162.578125 -164.28125 "/></g></g></g><g fill="#154f71" fill-opacity="1"><g transform="translate(122.580182, 505.71254)"><g><path d="M 18.1875 -301.859375 C 18.1875 -318.535156 19.609375 -331.894531 22.453125 -341.9375 C 25.296875 -351.976562 29.75 -359.648438 35.8125 -364.953125 C 41.875 -370.265625 51.253906 -373.960938 63.953125 -376.046875 C 76.648438 -378.128906 95.503906 -379.171875 120.515625 -379.171875 L 162.015625 -379.171875 C 187.023438 -379.171875 205.878906 -378.128906 218.578125 -376.046875 C 231.273438 -373.960938 240.65625 -370.265625 246.71875 -364.953125 C 252.78125 -359.648438 257.234375 -351.976562 260.078125 -341.9375 C 262.921875 -331.894531 264.34375 -318.535156 264.34375 -301.859375 L 264.34375 0 L 162.578125 0 L 162.578125 -80.15625 L 119.953125 -80.15625 L 119.953125 0 L 18.1875 0 Z M 162.578125 -164.28125 L 162.578125 -264.34375 C 162.578125 -287.832031 155.378906 -299.578125 140.984375 -299.578125 C 126.960938 -299.578125 119.953125 -287.832031 119.953125 -264.34375 L 119.953125 -164.28125 Z M 162.578125 -164.28125 "/></g></g></g></svg>