<svg xmlns="http://www.w3.org/2000/svg" xmlns:xlink="http://www.w3.org/1999/xlink" width="700" zoomAndPan="magnify" viewBox="0 0 525 525.000007" height="700" preserveAspectRatio="xMidYMid meet" version="1.0"><defs><g/></defs><g fill="#ffd700" fill-opacity="1"><g transform="translate(83.150991, 521.469449)"><g><path d="M 18.078125 -282.15625 C 18.078125 -290.914062 17.894531 -298.675781 17.53125 -305.4375 C 17.164062 -312.195312 16.617188 -318.679688 15.890625 -324.890625 C 15.160156 -331.097656 14.242188 -337.488281 13.140625 -344.0625 C 12.046875 -350.632812 10.585938 -357.757812 8.765625 -365.4375 L 107.9375 -365.4375 C 109.394531 -360.320312 110.578125 -355.84375 111.484375 -352 C 112.398438 -348.164062 113.222656 -344.515625 113.953125 -341.046875 C 114.679688 -337.578125 115.226562 -334.015625 115.59375 -330.359375 C 115.96875 -326.710938 116.519531 -322.332031 117.25 -317.21875 C 119.4375 -326.71875 122.265625 -334.570312 125.734375 -340.78125 C 129.203125 -346.988281 133.492188 -351.914062 138.609375 -355.5625 C 143.722656 -359.21875 150.113281 -361.773438 157.78125 -363.234375 C 165.457031 -364.703125 174.773438 -365.4375 185.734375 -365.4375 C 199.972656 -365.4375 210.65625 -364.703125 217.78125 -363.234375 C 224.90625 -361.773438 230.84375 -359.035156 235.59375 -355.015625 C 240.695312 -351.003906 244.617188 -346.257812 247.359375 -340.78125 C 250.097656 -335.300781 252.75 -327.445312 255.3125 -317.21875 C 257.863281 -326.71875 260.96875 -334.570312 264.625 -340.78125 C 268.28125 -346.988281 272.753906 -351.914062 278.046875 -355.5625 C 283.335938 -359.21875 289.816406 -361.773438 297.484375 -363.234375 C 305.160156 -364.703125 314.660156 -365.4375 325.984375 -365.4375 C 339.492188 -365.4375 350.539062 -364.429688 359.125 -362.421875 C 367.707031 -360.410156 374.460938 -356.753906 379.390625 -351.453125 C 384.328125 -346.160156 387.707031 -338.765625 389.53125 -329.265625 C 391.363281 -319.773438 392.28125 -307.722656 392.28125 -293.109375 L 392.28125 0 L 294.203125 0 L 294.203125 -246.546875 C 294.203125 -259.328125 292.738281 -268.273438 289.8125 -273.390625 C 286.894531 -278.503906 281.785156 -281.0625 274.484375 -281.0625 C 267.179688 -281.0625 261.976562 -278.503906 258.875 -273.390625 C 255.769531 -268.273438 254.21875 -259.328125 254.21875 -246.546875 L 254.21875 0 L 156.140625 0 L 156.140625 -252.578125 C 156.140625 -271.929688 149.382812 -281.609375 135.875 -281.609375 C 122.726562 -281.609375 116.15625 -271.5625 116.15625 -251.46875 L 116.15625 0 L 18.078125 0 Z M 18.078125 -282.15625 "/></g></g></g><g fill="#154f71" fill-opacity="1"><g transform="translate(105.991687, 491.219967)"><g><path d="M 18.078125 -282.15625 C 18.078125 -290.914062 17.894531 -298.675781 17.53125 -305.4375 C 17.164062 -312.195312 16.617188 -318.679688 15.890625 -324.890625 C 15.160156 -331.097656 14.242188 -337.488281 13.140625 -344.0625 C 12.046875 -350.632812 10.585938 -357.757812 8.765625 -365.4375 L 107.9375 -365.4375 C 109.394531 -360.320312 110.578125 -355.84375 111.484375 -352 C 112.398438 -348.164062 113.222656 -344.515625 113.953125 -341.046875 C 114.679688 -337.578125 115.226562 -334.015625 115.59375 -330.359375 C 115.96875 -326.710938 116.519531 -322.332031 117.25 -317.21875 C 119.4375 -326.71875 122.265625 -334.570312 125.734375 -340.78125 C 129.203125 -346.988281 133.492188 -351.914062 138.609375 -355.5625 C 143.722656 -359.21875 150.113281 -361.773438 157.78125 -363.234375 C 165.457031 -364.703125 174.773438 -365.4375 185.734375 -365.4375 C 199.972656 -365.4375 210.65625 -364.703125 217.78125 -363.234375 C 224.90625 -361.773438 230.84375 -359.035156 235.59375 -355.015625 C 240.695312 -351.003906 244.617188 -346.257812 247.359375 -340.78125 C 250.097656 -335.300781 252.75 -327.445312 255.3125 -317.21875 C 257.863281 -326.71875 260.96875 -334.570312 264.625 -340.78125 C 268.28125 -346.988281 272.753906 -351.914062 278.046875 -355.5625 C 283.335938 -359.21875 289.816406 -361.773438 297.484375 -363.234375 C 305.160156 -364.703125 314.660156 -365.4375 325.984375 -365.4375 C 339.492188 -365.4375 350.539062 -364.429688 359.125 -362.421875 C 367.707031 -360.410156 374.460938 -356.753906 379.390625 -351.453125 C 384.328125 -346.160156 387.707031 -338.765625 389.53125 -329.265625 C 391.363281 -319.773438 392.28125 -307.722656 392.28125 -293.109375 L 392.28125 0 L 294.203125 0 L 294.203125 -246.546875 C 294.203125 -259.328125 292.738281 -268.273438 289.8125 -273.390625 C 286.894531 -278.503906 281.785156 -281.0625 274.484375 -281.0625 C 267.179688 -281.0625 261.976562 -278.503906 258.875 -273.390625 C 255.769531 -268.273438 254.21875 -259.328125 254.21875 -246.546875 L 254.21875 0 L 156.140625 0 L 156.140625 -252.578125 C 156.140625 -271.929688 149.382812 -281.609375 135.875 -281.609375 C 122.726562 -281.609375 116.15625 -271.5625 116.15625 -251.46875 L 116.15625 0 L 18.078125 0 Z M 18.078125 -282.15625 "/></g></g></g></svg>