<svg xmlns="http://www.w3.org/2000/svg" xmlns:xlink="http://www.w3.org/1999/xlink" width="559" zoomAndPan="magnify" viewBox="0 0 419.25 525.000007" height="700" preserveAspectRatio="xMidYMid meet" version="1.0"><defs><clipPath id="610772c649"><path d="M 0.0234375 0 L 418.476562 0 L 418.476562 524 L 0.0234375 524 Z M 0.0234375 0 " clip-rule="nonzero"/></clipPath></defs><g clip-path="url(#610772c649)"><path stroke-linecap="butt" transform="matrix(0.847302, 0, 0, 0.847302, -176.361347, -188.340075)" fill="none" stroke-linejoin="miter" d="M 636.581733 834.999007 C 645.663869 834.999007 648.817261 830.365734 647.148361 822.021233 L 521.07724 238.196595 C 519.592748 230.594339 515.143884 227.440947 508.283874 227.440947 L 402.792783 227.440947 C 395.932773 227.440947 391.29489 230.594339 389.815009 238.196595 L 263.739277 822.021233 C 261.517151 830.365734 265.223769 834.999007 273.56827 834.999007 L 354.772714 834.999007 C 361.632724 834.999007 365.523751 831.292389 367.008242 824.432379 L 387.588272 713.561159 L 522.74614 713.561159 L 543.879396 824.432379 C 545.548296 831.292389 549.259524 834.999007 556.119534 834.999007 Z M 503.650602 625.496705 L 406.499401 625.496705 L 455.072696 360.376689 Z M 503.650602 625.496705 " stroke="#ffd700" stroke-width="15.18802" stroke-opacity="1" stroke-miterlimit="4"/></g></svg>