<svg xmlns="http://www.w3.org/2000/svg" version="1.1" xmlns:xlink="http://www.w3.org/1999/xlink" xmlns:svgjs="http://svgjs.dev/svgjs" viewBox="0 0 11.20861069958144 11.172681988753826"><g transform="matrix(1,0,0,1,0.93255242010322,9.274129568650608)"><g><path d=" M 1.083 0.9389999999999998 Q 1.083 0.9479999999999998 1.0755000000000001 0.9479999999999998 Q 1.0455 0.9479999999999998 0.9825 0.9449999999999998 Q 0.9165 0.9419999999999998 0.888 0.9419999999999998 Q 0.8505 0.9419999999999998 0.7965 0.9449999999999998 Q 0.7455 0.9479999999999998 0.7155 0.9479999999999998 Q 0.7095 0.9479999999999998 0.7095 0.9389999999999998 Q 0.7095 0.9299999999999998 0.7155 0.9299999999999998 Q 0.7545000000000001 0.9299999999999998 0.77175 0.9217499999999998 Q 0.789 0.9134999999999999 0.789 0.8924999999999998 Q 0.789 0.8669999999999999 0.759 0.8069999999999998 L 0.603 0.49949999999999983 L 0.336 0.49949999999999983 L 0.2295 0.7349999999999999 Q 0.21 0.7784999999999999 0.21 0.8159999999999998 Q 0.21 0.8699999999999999 0.24825 0.8999999999999998 Q 0.28650000000000003 0.9299999999999998 0.35100000000000003 0.9299999999999998 Q 0.3585 0.9299999999999998 0.3585 0.9389999999999998 Q 0.3585 0.9479999999999998 0.35100000000000003 0.9479999999999998 Q 0.324 0.9479999999999998 0.273 0.9449999999999998 Q 0.216 0.9419999999999998 0.17400000000000002 0.9419999999999998 Q 0.1335 0.9419999999999998 0.0765 0.9449999999999998 Q 0.025500000000000002 0.9479999999999998 -0.006 0.9479999999999998 Q -0.012 0.9479999999999998 -0.012 0.9389999999999998 Q -0.012 0.9299999999999998 -0.006 0.9299999999999998 Q 0.036000000000000004 0.9299999999999998 0.0645 0.9127499999999998 Q 0.093 0.8954999999999999 0.1215 0.8512499999999998 Q 0.15 0.8069999999999998 0.189 0.7199999999999999 L 0.5145 0.0044999999999998375 Q 0.5175 -2.220446049250313e-16 0.528 -2.220446049250313e-16 Q 0.54 -2.220446049250313e-16 0.5415 0.0044999999999998375 L 0.9165 0.7424999999999998 Q 0.969 0.8489999999999999 1.0035 0.8894999999999998 Q 1.038 0.9299999999999998 1.0755000000000001 0.9299999999999998 Q 1.083 0.9299999999999998 1.083 0.9389999999999998 M 0.3555 0.45749999999999985 L 0.582 0.45749999999999985 L 0.462 0.2204999999999998 L 0.3555 0.45749999999999985 M 1.357505126953125 0.8204999999999998 Q 1.357505126953125 0.8609999999999999 1.365005126953125 0.8804999999999998 Q 1.372505126953125 0.8999999999999998 1.394255126953125 0.9082499999999999 Q 1.416005126953125 0.9164999999999999 1.459505126953125 0.9164999999999999 L 1.4760051269531251 0.9164999999999999 Q 1.561505126953125 0.9164999999999999 1.632005126953125 0.8609999999999999 Q 1.702505126953125 0.8054999999999999 1.735505126953125 0.7109999999999999 Q 1.737005126953125 0.7079999999999999 1.7452551269531251 0.7087499999999998 Q 1.753505126953125 0.7094999999999998 1.753505126953125 0.7124999999999998 Q 1.743005126953125 0.7919999999999998 1.743005126953125 0.9254999999999999 Q 1.743005126953125 0.9374999999999999 1.737755126953125 0.9427499999999999 Q 1.732505126953125 0.9479999999999998 1.719005126953125 0.9479999999999998 L 1.119005126953125 0.9479999999999998 Q 1.116005126953125 0.9479999999999998 1.116005126953125 0.9389999999999998 Q 1.116005126953125 0.9299999999999998 1.119005126953125 0.9299999999999998 Q 1.158005126953125 0.9299999999999998 1.176005126953125 0.9224999999999999 Q 1.194005126953125 0.9149999999999998 1.200755126953125 0.8932499999999999 Q 1.207505126953125 0.8714999999999998 1.207505126953125 0.8264999999999998 L 1.207505126953125 0.3674999999999998 Q 1.207505126953125 0.3224999999999998 1.200755126953125 0.3014999999999999 Q 1.194005126953125 0.28049999999999986 1.176005126953125 0.2722499999999999 Q 1.158005126953125 0.2639999999999998 1.119005126953125 0.2639999999999998 Q 1.116005126953125 0.2639999999999998 1.116005126953125 0.2549999999999998 Q 1.116005126953125 0.24599999999999977 1.119005126953125 0.24599999999999977 L 1.192505126953125 0.24749999999999983 Q 1.255505126953125 0.25049999999999983 1.290005126953125 0.25049999999999983 Q 1.329005126953125 0.25049999999999983 1.392005126953125 0.24749999999999983 L 1.461005126953125 0.24599999999999977 Q 1.465505126953125 0.24599999999999977 1.465505126953125 0.2549999999999998 Q 1.465505126953125 0.2639999999999998 1.461005126953125 0.2639999999999998 Q 1.416005126953125 0.2639999999999998 1.394255126953125 0.2722499999999999 Q 1.372505126953125 0.28049999999999986 1.365005126953125 0.3022499999999998 Q 1.357505126953125 0.32399999999999984 1.357505126953125 0.3689999999999999 L 1.357505126953125 0.8204999999999998 M 1.980031494140625 0.5444999999999998 Q 1.980031494140625 0.7109999999999999 2.053531494140625 0.8099999999999998 Q 2.127031494140625 0.9089999999999998 2.260531494140625 0.9089999999999998 Q 2.2980314941406252 0.9089999999999998 2.337031494140625 0.8984999999999999 Q 2.376031494140625 0.8879999999999999 2.406031494140625 0.8669999999999999 L 2.407531494140625 0.8669999999999999 Q 2.412031494140625 0.8669999999999999 2.4157814941406253 0.8722499999999999 Q 2.419531494140625 0.8774999999999998 2.416531494140625 0.8819999999999999 Q 2.311531494140625 0.9659999999999999 2.185531494140625 0.9659999999999999 Q 2.068531494140625 0.9659999999999999 1.986781494140625 0.9157499999999998 Q 1.905031494140625 0.8654999999999998 1.863031494140625 0.7844999999999999 Q 1.821031494140625 0.7034999999999998 1.821031494140625 0.6089999999999998 Q 1.821031494140625 0.5054999999999998 1.872031494140625 0.4192499999999998 Q 1.923031494140625 0.33299999999999985 2.010031494140625 0.28274999999999983 Q 2.097031494140625 0.23249999999999982 2.199031494140625 0.23249999999999982 Q 2.310031494140625 0.23249999999999982 2.3685314941406252 0.2909999999999998 Q 2.427031494140625 0.3494999999999998 2.427031494140625 0.44399999999999984 Q 2.427031494140625 0.46349999999999986 2.423281494140625 0.4709999999999998 Q 2.419531494140625 0.4784999999999998 2.409031494140625 0.4784999999999998 L 1.983031494140625 0.4799999999999998 Q 1.980031494140625 0.5189999999999999 1.980031494140625 0.5444999999999998 M 2.043781494140625 0.3164999999999998 Q 2.002531494140625 0.3644999999999998 1.987531494140625 0.44999999999999984 L 2.266531494140625 0.4454999999999998 Q 2.263531494140625 0.26849999999999985 2.148031494140625 0.26849999999999985 Q 2.085031494140625 0.26849999999999985 2.043781494140625 0.3164999999999998 M 3.267035888671875 0.9389999999999998 Q 3.267035888671875 0.9479999999999998 3.262535888671875 0.9479999999999998 L 3.082535888671875 0.9449999999999998 L 2.9880358886718748 0.9464999999999999 Q 2.967035888671875 0.9479999999999998 2.9310358886718753 0.9479999999999998 Q 2.926535888671875 0.9479999999999998 2.926535888671875 0.9389999999999998 Q 2.926535888671875 0.9299999999999998 2.9310358886718753 0.9299999999999998 Q 2.959535888671875 0.9299999999999998 2.973035888671875 0.9262499999999998 Q 2.986535888671875 0.9224999999999999 2.986535888671875 0.9119999999999998 Q 2.986535888671875 0.9014999999999999 2.965535888671875 0.8714999999999998 L 2.8245358886718748 0.6599999999999998 L 2.727035888671875 0.7994999999999999 Q 2.700035888671875 0.8414999999999998 2.700035888671875 0.8744999999999998 Q 2.700035888671875 0.8999999999999998 2.716535888671875 0.9149999999999998 Q 2.733035888671875 0.9299999999999998 2.764535888671875 0.9299999999999998 Q 2.767535888671875 0.9299999999999998 2.767535888671875 0.9389999999999998 Q 2.767535888671875 0.9479999999999998 2.764535888671875 0.9479999999999998 Q 2.7195358886718752 0.9479999999999998 2.695535888671875 0.9464999999999999 L 2.596535888671875 0.9449999999999998 L 2.535035888671875 0.9464999999999999 Q 2.518535888671875 0.9479999999999998 2.479535888671875 0.9479999999999998 Q 2.476535888671875 0.9479999999999998 2.476535888671875 0.9389999999999998 Q 2.476535888671875 0.9299999999999998 2.479535888671875 0.9299999999999998 Q 2.577035888671875 0.9299999999999998 2.680535888671875 0.7904999999999999 L 2.802035888671875 0.6254999999999998 L 2.631035888671875 0.37049999999999983 Q 2.593535888671875 0.3134999999999998 2.553035888671875 0.28874999999999984 Q 2.512535888671875 0.2639999999999998 2.478035888671875 0.2639999999999998 Q 2.475035888671875 0.2639999999999998 2.475035888671875 0.2549999999999998 Q 2.475035888671875 0.24599999999999977 2.478035888671875 0.24599999999999977 L 2.524535888671875 0.24749999999999983 Q 2.557535888671875 0.25049999999999983 2.571035888671875 0.25049999999999983 L 2.715035888671875 0.24749999999999983 L 2.809535888671875 0.24599999999999977 Q 2.814035888671875 0.24599999999999977 2.814035888671875 0.2549999999999998 Q 2.814035888671875 0.2639999999999998 2.809535888671875 0.2639999999999998 Q 2.781035888671875 0.2639999999999998 2.767535888671875 0.2677499999999998 Q 2.7540358886718748 0.27149999999999985 2.7540358886718748 0.2819999999999998 Q 2.7540358886718748 0.2939999999999998 2.775035888671875 0.32399999999999984 L 2.899535888671875 0.5114999999999998 L 2.976035888671875 0.3959999999999998 Q 3.007535888671875 0.34799999999999986 3.007535888671875 0.3104999999999998 Q 3.007535888671875 0.2639999999999998 2.961035888671875 0.2639999999999998 Q 2.956535888671875 0.2639999999999998 2.956535888671875 0.2549999999999998 Q 2.956535888671875 0.24599999999999977 2.961035888671875 0.24599999999999977 L 3.021035888671875 0.24749999999999983 Q 3.0720358886718753 0.25049999999999983 3.111035888671875 0.25049999999999983 Q 3.136535888671875 0.25049999999999983 3.172535888671875 0.24749999999999983 L 3.228035888671875 0.24599999999999977 Q 3.231035888671875 0.24599999999999977 3.231035888671875 0.2549999999999998 Q 3.231035888671875 0.2639999999999998 3.228035888671875 0.2639999999999998 Q 3.124535888671875 0.2639999999999998 3.022535888671875 0.40349999999999986 L 2.922035888671875 0.5444999999999998 L 3.109535888671875 0.8234999999999999 Q 3.148535888671875 0.8804999999999998 3.1890358886718753 0.9052499999999999 Q 3.229535888671875 0.9299999999999998 3.262535888671875 0.9299999999999998 Q 3.267035888671875 0.9299999999999998 3.267035888671875 0.9389999999999998 M 4.8720373535156245 0.9389999999999998 Q 4.8720373535156245 0.9479999999999998 4.869037353515625 0.9479999999999998 Q 4.818037353515625 0.9479999999999998 4.788037353515625 0.9464999999999999 L 4.677037353515625 0.9449999999999998 L 4.564537353515625 0.9464999999999999 Q 4.536037353515625 0.9479999999999998 4.486537353515625 0.9479999999999998 Q 4.482037353515625 0.9479999999999998 4.482037353515625 0.9389999999999998 Q 4.482037353515625 0.9299999999999998 4.486537353515625 0.9299999999999998 Q 4.549537353515625 0.9299999999999998 4.572037353515625 0.9149999999999998 Q 4.594537353515625 0.8999999999999998 4.594537353515625 0.8519999999999999 L 4.593037353515625 0.8264999999999998 L 4.561537353515625 0.21299999999999986 L 4.252537353515625 0.9374999999999999 Q 4.249537353515625 0.9434999999999999 4.240537353515625 0.9434999999999999 Q 4.231537353515625 0.9434999999999999 4.228537353515625 0.9374999999999999 L 3.849037353515625 0.21599999999999986 L 3.837037353515625 0.7574999999999998 Q 3.835537353515625 0.8384999999999998 3.869287353515625 0.8842499999999999 Q 3.903037353515625 0.9299999999999998 3.964537353515625 0.9299999999999998 Q 3.969037353515625 0.9299999999999998 3.969037353515625 0.9389999999999998 Q 3.969037353515625 0.9479999999999998 3.964537353515625 0.9479999999999998 Q 3.924037353515625 0.9479999999999998 3.901537353515625 0.9464999999999999 L 3.819037353515625 0.9449999999999998 L 3.724537353515625 0.9464999999999999 Q 3.700537353515625 0.9479999999999998 3.660037353515625 0.9479999999999998 Q 3.655537353515625 0.9479999999999998 3.655537353515625 0.9389999999999998 Q 3.655537353515625 0.9299999999999998 3.660037353515625 0.9299999999999998 Q 3.721537353515625 0.9299999999999998 3.757537353515625 0.8834999999999998 Q 3.793537353515625 0.8369999999999999 3.795037353515625 0.7574999999999998 L 3.808537353515625 0.13649999999999984 L 3.807037353515625 0.1349999999999998 Q 3.777037353515625 0.07949999999999979 3.744787353515625 0.053999999999999826 Q 3.712537353515625 0.02849999999999986 3.670537353515625 0.02849999999999986 Q 3.666037353515625 0.02849999999999986 3.666037353515625 0.01949999999999985 Q 3.666037353515625 0.010499999999999843 3.670537353515625 0.010499999999999843 L 3.741037353515625 0.011999999999999789 Q 3.762037353515625 0.013499999999999845 3.795037353515625 0.013499999999999845 L 3.874537353515625 0.011999999999999789 Q 3.888037353515625 0.010499999999999843 3.909037353515625 0.010499999999999843 Q 3.928537353515625 0.010499999999999843 3.939037353515625 0.0239999999999998 Q 3.949537353515625 0.03749999999999987 3.978037353515625 0.0884999999999998 L 4.305037353515625 0.7019999999999998 L 4.590037353515625 0.04799999999999982 Q 4.599037353515625 0.026999999999999802 4.608787353515625 0.018749999999999822 Q 4.618537353515625 0.010499999999999843 4.635037353515625 0.010499999999999843 Q 4.648537353515625 0.010499999999999843 4.665787353515626 0.011999999999999789 Q 4.683037353515625 0.013499999999999845 4.705537353515625 0.013499999999999845 L 4.794037353515625 0.011999999999999789 Q 4.815037353515625 0.010499999999999843 4.854037353515625 0.010499999999999843 Q 4.858537353515625 0.010499999999999843 4.858537353515625 0.01949999999999985 Q 4.858537353515625 0.02849999999999986 4.854037353515625 0.02849999999999986 Q 4.783537353515625 0.02849999999999986 4.752037353515625 0.05699999999999983 Q 4.720537353515625 0.0854999999999998 4.723537353515625 0.14549999999999985 L 4.759537353515626 0.8264999999999998 Q 4.762537353515625 0.8729999999999999 4.770787353515625 0.8939999999999998 Q 4.7790373535156245 0.9149999999999998 4.800787353515625 0.9224999999999999 Q 4.822537353515625 0.9299999999999998 4.869037353515625 0.9299999999999998 Q 4.8720373535156245 0.9299999999999998 4.8720373535156245 0.9389999999999998 M 5.127029296875 0.9157499999999998 Q 5.043029296875 0.8654999999999998 4.996529296875 0.7807499999999998 Q 4.950029296875 0.6959999999999998 4.950029296875 0.5969999999999998 Q 4.950029296875 0.4829999999999998 5.009279296875 0.3989999999999998 Q 5.068529296875 0.31499999999999984 5.160779296875 0.27149999999999985 Q 5.253029296875 0.22799999999999987 5.350529296875 0.22799999999999987 Q 5.457029296875 0.22799999999999987 5.538779296875 0.27974999999999983 Q 5.6205292968750005 0.3314999999999998 5.665529296875 0.41474999999999984 Q 5.710529296875 0.49799999999999983 5.710529296875 0.5894999999999999 Q 5.710529296875 0.6899999999999998 5.658029296875 0.7762499999999999 Q 5.605529296875 0.8624999999999998 5.515529296875 0.9142499999999998 Q 5.425529296875 0.9659999999999999 5.317529296875 0.9659999999999999 Q 5.211029296875 0.9659999999999999 5.127029296875 0.9157499999999998 M 5.487779296875 0.8489999999999999 Q 5.539529296875 0.7664999999999998 5.539529296875 0.6209999999999998 Q 5.539529296875 0.5219999999999998 5.509529296875 0.44099999999999984 Q 5.4795292968750005 0.3599999999999999 5.424779296875 0.31274999999999986 Q 5.370029296875 0.26549999999999985 5.298029296875 0.26549999999999985 Q 5.211029296875 0.26549999999999985 5.166029296875 0.3374999999999998 Q 5.121029296875 0.40949999999999986 5.121029296875 0.5504999999999998 Q 5.121029296875 0.6569999999999998 5.151779296875 0.7447499999999998 Q 5.182529296875 0.8324999999999998 5.235029296875 0.8819999999999999 Q 5.287529296875 0.9314999999999999 5.352029296875 0.9314999999999999 Q 5.436029296875 0.9314999999999999 5.487779296875 0.8489999999999999 M 6.60905419921875 0.9389999999999998 Q 6.60905419921875 0.9479999999999998 6.60455419921875 0.9479999999999998 L 6.35855419921875 0.9479999999999998 Q 6.33605419921875 0.9479999999999998 6.27830419921875 0.8579999999999999 Q 6.22055419921875 0.7679999999999998 6.14105419921875 0.6104999999999998 Q 6.10955419921875 0.6149999999999998 6.07805419921875 0.6149999999999998 L 6.05255419921875 0.6149999999999998 L 6.05255419921875 0.8264999999999998 Q 6.05255419921875 0.8729999999999999 6.05930419921875 0.8939999999999998 Q 6.06605419921875 0.9149999999999998 6.08480419921875 0.9224999999999999 Q 6.10355419921875 0.9299999999999998 6.14555419921875 0.9299999999999998 Q 6.14855419921875 0.9299999999999998 6.14855419921875 0.9389999999999998 Q 6.14855419921875 0.9479999999999998 6.14555419921875 0.9479999999999998 Q 6.10055419921875 0.9479999999999998 6.07505419921875 0.9464999999999999 L 5.97305419921875 0.9449999999999998 L 5.87555419921875 0.9464999999999999 Q 5.84855419921875 0.9479999999999998 5.80055419921875 0.9479999999999998 Q 5.79755419921875 0.9479999999999998 5.79755419921875 0.9389999999999998 Q 5.79755419921875 0.9299999999999998 5.80055419921875 0.9299999999999998 Q 5.84255419921875 0.9299999999999998 5.86205419921875 0.9224999999999999 Q 5.88155419921875 0.9149999999999998 5.88905419921875 0.8932499999999999 Q 5.89655419921875 0.8714999999999998 5.89655419921875 0.8264999999999998 L 5.89655419921875 0.3674999999999998 Q 5.89655419921875 0.3224999999999998 5.88980419921875 0.3014999999999999 Q 5.88305419921875 0.28049999999999986 5.86355419921875 0.2722499999999999 Q 5.84405419921875 0.2639999999999998 5.80355419921875 0.2639999999999998 Q 5.79905419921875 0.2639999999999998 5.79905419921875 0.2549999999999998 Q 5.79905419921875 0.24599999999999977 5.80355419921875 0.24599999999999977 L 5.87705419921875 0.24749999999999983 Q 5.93705419921875 0.25049999999999983 5.97305419921875 0.25049999999999983 Q 6.00155419921875 0.25049999999999983 6.02555419921875 0.24899999999999978 Q 6.04955419921875 0.24749999999999983 6.06755419921875 0.24599999999999977 Q 6.11705419921875 0.24149999999999983 6.16055419921875 0.24149999999999983 Q 6.27755419921875 0.24149999999999983 6.33905419921875 0.2789999999999998 Q 6.40055419921875 0.3164999999999998 6.40055419921875 0.3869999999999998 Q 6.40055419921875 0.4454999999999998 6.36305419921875 0.49499999999999983 Q 6.32555419921875 0.5444999999999998 6.25955419921875 0.5759999999999998 Q 6.34055419921875 0.7124999999999998 6.3990541992187495 0.7889999999999998 Q 6.45755419921875 0.8654999999999998 6.50555419921875 0.8977499999999998 Q 6.55355419921875 0.9299999999999998 6.60455419921875 0.9299999999999998 Q 6.60905419921875 0.9299999999999998 6.60905419921875 0.9389999999999998 M 6.08855419921875 0.5864999999999998 Q 6.17405419921875 0.5864999999999998 6.20705419921875 0.5467499999999998 Q 6.24005419921875 0.5069999999999999 6.24005419921875 0.4274999999999999 Q 6.24005419921875 0.27149999999999985 6.12605419921875 0.27149999999999985 Q 6.09455419921875 0.27149999999999985 6.07955419921875 0.2789999999999998 Q 6.06455419921875 0.28649999999999987 6.05855419921875 0.30674999999999986 Q 6.05255419921875 0.32699999999999985 6.05255419921875 0.37049999999999983 L 6.05255419921875 0.5849999999999999 Q 6.06305419921875 0.5864999999999998 6.08855419921875 0.5864999999999998 M 7.4295498046875 0.9389999999999998 Q 7.4295498046875 0.9479999999999998 7.4250498046875 0.9479999999999998 L 7.1790498046875 0.9479999999999998 Q 7.1565498046875 0.9479999999999998 7.0987998046875 0.8579999999999999 Q 7.0410498046875 0.7679999999999998 6.9615498046875 0.6104999999999998 Q 6.9300498046875 0.6149999999999998 6.8985498046875 0.6149999999999998 L 6.8730498046875 0.6149999999999998 L 6.8730498046875 0.8264999999999998 Q 6.8730498046875 0.8729999999999999 6.8797998046875 0.8939999999999998 Q 6.8865498046875 0.9149999999999998 6.9052998046875 0.9224999999999999 Q 6.9240498046875 0.9299999999999998 6.9660498046875 0.9299999999999998 Q 6.9690498046875 0.9299999999999998 6.9690498046875 0.9389999999999998 Q 6.9690498046875 0.9479999999999998 6.9660498046875 0.9479999999999998 Q 6.9210498046875 0.9479999999999998 6.8955498046875 0.9464999999999999 L 6.7935498046875 0.9449999999999998 L 6.6960498046875 0.9464999999999999 Q 6.6690498046875 0.9479999999999998 6.6210498046875 0.9479999999999998 Q 6.6180498046875 0.9479999999999998 6.6180498046875 0.9389999999999998 Q 6.6180498046875 0.9299999999999998 6.6210498046875 0.9299999999999998 Q 6.6630498046875 0.9299999999999998 6.6825498046875 0.9224999999999999 Q 6.7020498046875 0.9149999999999998 6.7095498046875 0.8932499999999999 Q 6.7170498046875 0.8714999999999998 6.7170498046875 0.8264999999999998 L 6.7170498046875 0.3674999999999998 Q 6.7170498046875 0.3224999999999998 6.7102998046875 0.3014999999999999 Q 6.7035498046875 0.28049999999999986 6.6840498046875 0.2722499999999999 Q 6.6645498046875 0.2639999999999998 6.6240498046875 0.2639999999999998 Q 6.6195498046875 0.2639999999999998 6.6195498046875 0.2549999999999998 Q 6.6195498046875 0.24599999999999977 6.6240498046875 0.24599999999999977 L 6.6975498046875 0.24749999999999983 Q 6.7575498046875 0.25049999999999983 6.7935498046875 0.25049999999999983 Q 6.8220498046875 0.25049999999999983 6.8460498046875 0.24899999999999978 Q 6.8700498046875 0.24749999999999983 6.8880498046875 0.24599999999999977 Q 6.9375498046875 0.24149999999999983 6.9810498046875 0.24149999999999983 Q 7.0980498046875 0.24149999999999983 7.1595498046875 0.2789999999999998 Q 7.2210498046875 0.3164999999999998 7.2210498046875 0.3869999999999998 Q 7.2210498046875 0.4454999999999998 7.1835498046875 0.49499999999999983 Q 7.1460498046875 0.5444999999999998 7.0800498046875 0.5759999999999998 Q 7.1610498046875 0.7124999999999998 7.2195498046874995 0.7889999999999998 Q 7.2780498046875 0.8654999999999998 7.3260498046875 0.8977499999999998 Q 7.3740498046875 0.9299999999999998 7.4250498046875 0.9299999999999998 Q 7.4295498046875 0.9299999999999998 7.4295498046875 0.9389999999999998 M 6.9090498046875 0.5864999999999998 Q 6.9945498046875 0.5864999999999998 7.0275498046875 0.5467499999999998 Q 7.0605498046875 0.5069999999999999 7.0605498046875 0.4274999999999999 Q 7.0605498046875 0.27149999999999985 6.9465498046875 0.27149999999999985 Q 6.9150498046875 0.27149999999999985 6.9000498046875 0.2789999999999998 Q 6.8850498046875 0.28649999999999987 6.8790498046875 0.30674999999999986 Q 6.8730498046875 0.32699999999999985 6.8730498046875 0.37049999999999983 L 6.8730498046875 0.5849999999999999 Q 6.8835498046875 0.5864999999999998 6.9090498046875 0.5864999999999998 M 7.600509521484375 0.9157499999999998 Q 7.516509521484375 0.8654999999999998 7.470009521484375 0.7807499999999998 Q 7.423509521484375 0.6959999999999998 7.423509521484375 0.5969999999999998 Q 7.423509521484375 0.4829999999999998 7.482759521484375 0.3989999999999998 Q 7.542009521484375 0.31499999999999984 7.634259521484375 0.27149999999999985 Q 7.726509521484375 0.22799999999999987 7.824009521484375 0.22799999999999987 Q 7.930509521484375 0.22799999999999987 8.012259521484374 0.27974999999999983 Q 8.094009521484375 0.3314999999999998 8.139009521484375 0.41474999999999984 Q 8.184009521484375 0.49799999999999983 8.184009521484375 0.5894999999999999 Q 8.184009521484375 0.6899999999999998 8.131509521484375 0.7762499999999999 Q 8.079009521484375 0.8624999999999998 7.989009521484375 0.9142499999999998 Q 7.899009521484375 0.9659999999999999 7.791009521484375 0.9659999999999999 Q 7.684509521484375 0.9659999999999999 7.600509521484375 0.9157499999999998 M 7.961259521484375 0.8489999999999999 Q 8.013009521484374 0.7664999999999998 8.013009521484374 0.6209999999999998 Q 8.013009521484374 0.5219999999999998 7.983009521484375 0.44099999999999984 Q 7.9530095214843755 0.3599999999999999 7.898259521484375 0.31274999999999986 Q 7.843509521484375 0.26549999999999985 7.771509521484375 0.26549999999999985 Q 7.684509521484375 0.26549999999999985 7.639509521484375 0.3374999999999998 Q 7.594509521484375 0.40949999999999986 7.594509521484375 0.5504999999999998 Q 7.594509521484375 0.6569999999999998 7.625259521484375 0.7447499999999998 Q 7.656009521484375 0.8324999999999998 7.708509521484375 0.8819999999999999 Q 7.761009521484375 0.9314999999999999 7.825509521484375 0.9314999999999999 Q 7.909509521484375 0.9314999999999999 7.961259521484375 0.8489999999999999 M 9.355534423828125 0.2549999999999998 Q 9.355534423828125 0.2639999999999998 9.352534423828125 0.2639999999999998 Q 9.298534423828125 0.2639999999999998 9.259534423828125 0.30374999999999985 Q 9.220534423828125 0.3434999999999998 9.183034423828126 0.4334999999999999 L 8.983534423828125 0.9464999999999999 Q 8.982034423828125 0.9524999999999998 8.967034423828125 0.9524999999999998 Q 8.952034423828126 0.9524999999999998 8.950534423828126 0.9464999999999999 L 8.794534423828125 0.6209999999999998 L 8.653534423828125 0.9464999999999999 Q 8.652034423828125 0.9524999999999998 8.637034423828124 0.9524999999999998 Q 8.622034423828126 0.9524999999999998 8.620534423828126 0.9464999999999999 L 8.341534423828126 0.37049999999999983 Q 8.311534423828125 0.3074999999999999 8.289034423828125 0.28574999999999984 Q 8.266534423828125 0.2639999999999998 8.227534423828125 0.2639999999999998 Q 8.223034423828125 0.2639999999999998 8.223034423828125 0.2549999999999998 Q 8.223034423828125 0.24599999999999977 8.227534423828125 0.24599999999999977 Q 8.248534423828126 0.24599999999999977 8.296534423828126 0.24899999999999978 L 8.362534423828125 0.25049999999999983 Q 8.415034423828125 0.25049999999999983 8.469034423828125 0.24749999999999983 Q 8.484034423828126 0.24599999999999977 8.505034423828125 0.24599999999999977 Q 8.508034423828125 0.24599999999999977 8.508034423828125 0.2549999999999998 Q 8.508034423828125 0.2639999999999998 8.505034423828125 0.2639999999999998 Q 8.488534423828124 0.2639999999999998 8.481034423828126 0.26849999999999985 Q 8.473534423828125 0.2729999999999998 8.473534423828125 0.2849999999999998 Q 8.473534423828125 0.3014999999999999 8.499034423828125 0.3554999999999998 L 8.698534423828125 0.7574999999999998 L 8.773534423828124 0.5804999999999998 L 8.673034423828126 0.37049999999999983 Q 8.643034423828125 0.3059999999999998 8.625034423828126 0.2849999999999998 Q 8.607034423828125 0.2639999999999998 8.584534423828124 0.2639999999999998 Q 8.581534423828124 0.2639999999999998 8.581534423828124 0.2549999999999998 Q 8.581534423828124 0.24599999999999977 8.584534423828124 0.24599999999999977 L 8.626534423828126 0.24749999999999983 Q 8.677534423828124 0.25049999999999983 8.707534423828125 0.25049999999999983 Q 8.727034423828124 0.25049999999999983 8.772034423828124 0.24749999999999983 L 8.815534423828126 0.24599999999999977 Q 8.818534423828124 0.24599999999999977 8.818534423828124 0.2549999999999998 Q 8.818534423828124 0.2639999999999998 8.815534423828126 0.2639999999999998 Q 8.796034423828125 0.2639999999999998 8.796034423828125 0.2759999999999998 Q 8.796034423828125 0.2849999999999998 8.805034423828126 0.3059999999999998 Q 8.814034423828126 0.32699999999999985 8.829034423828125 0.3554999999999998 L 8.869534423828124 0.43799999999999983 L 8.887534423828125 0.3899999999999998 Q 8.907034423828126 0.33299999999999985 8.907034423828126 0.3044999999999999 Q 8.907034423828126 0.2639999999999998 8.878534423828125 0.2639999999999998 Q 8.874034423828125 0.2639999999999998 8.874034423828125 0.2549999999999998 Q 8.874034423828125 0.24599999999999977 8.878534423828125 0.24599999999999977 Q 8.892034423828125 0.24599999999999977 8.920534423828125 0.24824999999999986 Q 8.949034423828126 0.25049999999999983 8.977534423828125 0.25049999999999983 Q 9.003034423828126 0.25049999999999983 9.027034423828125 0.24749999999999983 L 9.070534423828125 0.24599999999999977 Q 9.075034423828125 0.24599999999999977 9.075034423828125 0.2549999999999998 Q 9.075034423828125 0.2639999999999998 9.070534423828125 0.2639999999999998 Q 9.028534423828125 0.2639999999999998 9.003034423828126 0.2759999999999998 Q 8.977534423828125 0.2879999999999998 8.958784423828124 0.31574999999999986 Q 8.940034423828125 0.3434999999999998 8.914534423828124 0.3989999999999998 L 8.886034423828125 0.4694999999999998 L 9.024034423828125 0.7499999999999998 L 9.141034423828126 0.43199999999999983 Q 9.165034423828125 0.3689999999999999 9.165034423828125 0.32399999999999984 Q 9.165034423828125 0.2639999999999998 9.120034423828125 0.2639999999999998 Q 9.117034423828125 0.2639999999999998 9.117034423828125 0.2549999999999998 Q 9.117034423828125 0.24599999999999977 9.120034423828125 0.24599999999999977 L 9.160534423828125 0.24749999999999983 Q 9.193534423828124 0.25049999999999983 9.219034423828125 0.25049999999999983 Q 9.249034423828125 0.25049999999999983 9.288034423828124 0.24749999999999983 L 9.352534423828125 0.24599999999999977 Q 9.355534423828125 0.24599999999999977 9.355534423828125 0.2549999999999998" fill="#202020" fill-rule="nonzero"></path></g><g></g><g clip-path="url(#SvgjsClipPath1001)"><g clip-path="url(#aa6ed69dd-c7e7-41fb-95e3-12b03e13f5ee7ab394d9-7d8a-4780-97fc-565fbbdc72ad)"><path d=" M 8.717609647001254 -4.2957885742736925 C 8.717609647001254 -2.0613782907994223 6.906231356201829 -0.24999999999999822 4.671684786647444 -0.24999999999999822 C 2.437410789253287 -0.24999999999999822 0.6258962123737503 -2.0613782907994223 0.6258962123737503 -4.2957885742736925 C 0.6258962123737503 -6.530198857747964 2.437410789253287 -8.341577148547387 4.671684786647443 -8.341577148547387 C 6.906231356201829 -8.341577148547387 8.717609647001254 -6.530198857747964 8.717609647001254 -4.2957885742736925" fill="#202020" transform="matrix(1,0,0,1,0,0)" fill-rule="nonzero"></path></g><g clip-path="url(#aa6ed69dd-c7e7-41fb-95e3-12b03e13f5ee7ab394d9-7d8a-4780-97fc-565fbbdc72ad)"><path d=" M 6.69553307634509 -6.467234688735148 L 2.6173084150041888 -6.467234688735148 C 2.5917426282217866 -6.467307113351125 2.567199127819195 -6.457201873406279 2.5490957624388235 -6.4391496474761345 C 2.530992397058452 -6.42109742154599 2.5208177676986026 -6.396582605541283 2.520817870283251 -6.371016716174439 L 2.520817870283251 -4.082909717135125 C 2.520817870283251 -4.029621859810426 2.5638842715993753 -3.9869643167346442 2.6173084150041888 -3.9869643167346442 L 6.69553307634509 -3.9869643167346442 C 6.748957219749904 -3.9869643167346442 6.792432479306372 -4.029621859810426 6.792432479306372 -4.082909717135125 L 6.792432479306372 -6.371016716174439 C 6.792432479306372 -6.424168287419024 6.748957219749904 -6.467234688735148 6.69553307634509 -6.467234688735148 M 6.598906245544038 -4.178173687135035 L 2.7136626736450133 -4.178173687135035 L 2.7136626736450133 -6.275480174014301 L 6.598906245544038 -6.275480174014301 Z" fill="#1192dc" transform="matrix(1,0,0,1,0,0)" fill-rule="nonzero"></path></g><g clip-path="url(#aa6ed69dd-c7e7-41fb-95e3-12b03e13f5ee7ab394d9-7d8a-4780-97fc-565fbbdc72ad)"><path d=" M 2.2562865887813555 -3.5778335042314566 L 7.087491842753873 -3.5778335042314566 C 7.140779700078571 -3.5778335042314566 7.183982387474811 -3.6204910473072394 7.183982387474811 -3.6735063324717094 L 7.183982387474811 -6.779874956517397 C 7.184019381482932 -6.805427233831223 7.173847777826927 -6.829935636607084 7.15572845830833 -6.847952587088855 C 7.137609138789734 -6.865969537570626 7.113043500355614 -6.876002121279862 7.08749184275388 -6.875820356917878 L 2.2562865887813555 -6.875820356917878 C 2.230747402404151 -6.876002370081606 2.2061955927781596 -6.86596549950008 2.188097846192498 -6.84794454674717 C 2.1700000996068356 -6.829923593994263 2.1598589184987587 -6.805414685966477 2.1599323301405318 -6.779874956517397 L 2.1599323301405318 -3.6735063324717094 C 2.1599323301405318 -3.6204910473072394 2.202998731456657 -3.5778335042314566 2.2562865887813555 -3.5778335042314566 M 2.3527771335022942 -6.684202128277145 L 6.990456153712478 -6.684202128277145 L 6.990456153712478 -3.7690428746318467 L 2.3527771335022942 -3.7690428746318467 Z" fill="#1192dc" transform="matrix(1,0,0,1,0,0)" fill-rule="nonzero"></path></g><g clip-path="url(#aa6ed69dd-c7e7-41fb-95e3-12b03e13f5ee7ab394d9-7d8a-4780-97fc-565fbbdc72ad)"><path d=" M 7.62241470720258 -2.430304709668886 L 7.535464188089644 -2.3891463134743613 L 7.622005848962238 -2.430304709668886 L 7.318360462467534 -3.0564029617140704 C 7.316610597833116 -3.060811763227866 7.314466769749495 -3.065053806031628 7.31195501670216 -3.069077567164702 L 7.177031797388984 -3.3469648845178 C 7.162468878186948 -3.3835497308502003 7.127004571157345 -3.4074989503839115 7.087628128833989 -3.407339618008444 L 6.688037341938805 -3.407339618008444 C 6.681285612461731 -3.408020963797523 6.674482445478844 -3.408020963797523 6.6677307160017705 -3.407339618008444 L 5.8569648254016835 -3.407339618008444 C 5.850714163844858 -3.40802069868214 5.844408007902734 -3.40802069868214 5.838157346345907 -3.407339618008444 L 2.257922021742729 -3.407339618008444 C 2.2203213877382257 -3.4081448361103197 2.185727196434443 -3.386876604476715 2.1694723557485354 -3.3529614720428293 L 2.169881213988879 -3.3529614720428293 L 2.031550842672844 -3.069077567164702 L 2.0254179690676994 -3.0568118199544134 L 1.8787741468646912 -2.7538478638602806 C 1.8705536634483597 -2.7438984942347737 1.864725558036376 -2.7321956585675107 1.8617383868504016 -2.7196400577515867 L 1.7238168737747108 -2.4356198667933446 C 1.7071520105948785 -2.405808866184188 1.707564456382547 -2.369392188410039 1.7249002214458 -2.3399662700421553 C 1.7422359865090529 -2.3105403516742715 1.773889112908037 -2.292528574393729 1.8080416712853618 -2.2926557687534226 L 1.8080416712853618 -2.2930646269937656 L 2.2519254342176995 -2.2930646269937656 C 2.2562314566781625 -2.2926553483268233 2.2605665893680964 -2.2926553483268233 2.26487261182856 -2.2930646269937656 L 2.684088594260207 -2.2930646269937656 C 2.6874957462630653 -2.2930646269937656 2.6909028982659224 -2.2926557687534226 2.6949914806693527 -2.2930646269937656 L 3.144326686806264 -2.2930646269937656 L 5.195841050767117 -2.2934734852341085 L 5.704596987833874 -2.2934734852341085 C 5.709039623986667 -2.293064872150646 5.713510387532283 -2.293064872150646 5.717953023685077 -2.2934734852341085 L 7.527150737202671 -2.2934734852341085 C 7.5444581327568985 -2.2919569166288714 7.56185036399622 -2.2952091224703706 7.577440300764854 -2.302877224761996 C 7.600330814943924 -2.3137800517402933 7.61793966136305 -2.333346468011764 7.626378126757262 -2.357255453295366 C 7.634816592151475 -2.3811644385789688 7.633390471460217 -2.407449078536457 7.62241470720258 -2.430304709668886 M 7.0272533953433465 -3.21572138936771 L 7.075226095543587 -3.117186553445057 L 6.8797918566596525 -3.117186553445057 L 6.831819156459412 -3.21572138936771 Z M 6.617713724599816 -3.21572138936771 L 6.666231569120513 -3.117186553445057 L 6.4491278434984025 -3.117186553445057 L 6.401155143298162 -3.21572138936771 Z M 6.1871859975186805 -3.21572138936771 L 6.235567555959264 -3.117186553445057 L 6.0269135673042395 -3.117186553445057 L 5.9883446066318875 -3.21572138936771 Z M 4.768175331368385 -3.21572138936771 L 4.9486181014397435 -3.21572138936771 L 4.967016722255177 -3.117186553445057 L 4.768175331368385 -3.117186553445057 Z M 4.768175331368385 -2.925568324804323 L 5.002178530924671 -2.925568324804323 L 5.026301167104905 -2.7917353941320613 L 4.768175331368385 -2.7917353941320613 Z M 3.6012939134295787 -3.21572138936771 L 3.8312085305824364 -3.21572138936771 L 3.796455580153285 -3.117186553445057 L 3.5586363703537973 -3.117186553445057 Z M 3.198295974531536 -3.21572138936771 L 3.391549636133641 -3.21572138936771 L 3.3487558069777443 -3.117186553445057 L 3.1503232743312948 -3.117186553445057 Z M 2.7676319613702853 -3.21572138936771 L 2.9843268287520535 -3.21572138936771 L 2.9366267007120417 -3.117186553445057 L 2.719659261170045 -3.117186553445057 Z M 2.3173427526725723 -3.21572138936771 L 2.553662815590803 -3.21572138936771 L 2.505690115390563 -3.117186553445057 L 2.2686886220717613 -3.117186553445057 Z M 2.197956146492429 -2.4842739973941566 L 1.9612272253338552 -2.4838651391538136 L 2.018058520741527 -2.6005260237316703 L 2.2549237279802146 -2.6005260237316703 Z M 2.111005627379493 -2.7917353941320613 L 2.1758778015139093 -2.925568324804323 L 2.412606722672482 -2.925568324804323 L 2.3480071206982953 -2.7917353941320613 Z M 2.6286201596536793 -2.4842739973941566 L 2.411516434031568 -2.4842739973941566 L 2.4686203015994677 -2.6005260237316703 L 2.685587741141464 -2.6005260237316703 Z M 2.5615674082374342 -2.7917353941320613 L 2.6267121545320795 -2.925568324804323 L 2.8432707358337335 -2.925568324804323 L 2.7785348477794316 -2.7917353941320613 Z M 3.0750933581081914 -2.4842739973941566 L 2.84286187759339 -2.4842739973941566 L 2.8992843147607186 -2.6005260237316703 L 3.125655493830604 -2.6005260237316703 Z M 3.208108572299767 -2.7917353941320613 L 2.9922314213986843 -2.7917353941320613 L 3.0573761676933295 -2.925568324804323 L 3.2660301563483527 -2.925568324804323 Z M 3.575672130368087 -2.4842739973941566 L 3.284837635404129 -2.4842739973941566 L 3.3352634850464273 -2.6005260237316703 L 3.61614909616204 -2.6005260237316703 Z M 3.682929275418057 -2.7917353941320613 L 3.4178528495957043 -2.7917353941320613 L 3.4757744336442906 -2.925568324804323 L 3.7298116869773827 -2.925568324804323 Z M 4.0551265602102635 -2.4842739973941566 L 3.778738389738423 -2.4842739973941566 L 3.8198967859329476 -2.6005260237316703 L 4.077341191268897 -2.6005260237316703 Z M 4.114411005059992 -2.7917353941320613 L 3.8865406791088497 -2.7917353941320613 L 3.933014232427833 -2.925568324804323 L 4.139760215961255 -2.925568324804323 Z M 4.176830029752351 -3.117186553445057 L 4.000203269924192 -3.117186553445057 L 4.034956220353344 -3.21572138936771 L 4.195637508808126 -3.21572138936771 Z M 4.575330528006621 -2.4842739973941566 L 4.251378515574883 -2.4842739973941566 L 4.273593146633518 -2.6005260237316703 L 4.575330528006621 -2.6005260237316703 Z M 4.575330528006621 -2.7917353941320613 L 4.310254102184269 -2.7917353941320613 L 4.336012171325876 -2.925568324804323 L 4.575739386246964 -2.925568324804323 Z M 4.575739386246964 -3.117186553445057 L 4.372673126876627 -3.117186553445057 L 4.391480605932404 -3.21572138936771 L 4.575739386246965 -3.21572138936771 Z M 4.76776647312804 -2.4842739973941566 L 4.76776647312804 -2.6005260237316703 L 5.06119040361417 -2.6005260237316703 L 5.082723604272233 -2.4842739973941566 Z M 5.162178388978881 -3.117186553445057 L 5.144324912483906 -3.21572138936771 L 5.3491628908957285 -3.21572138936771 L 5.37982725892145 -3.117186553445057 Z M 5.1973401976483755 -2.925568324804323 L 5.440474564572321 -2.925568324804323 L 5.483132107648105 -2.7917353941320613 L 5.222007978149068 -2.7917353941320613 Z M 5.278430415316397 -2.4842739973941566 L 5.257033500738448 -2.6005260237316703 L 5.543370555058633 -2.6005260237316703 L 5.579895224529271 -2.4842739973941566 Z M 5.550866289464921 -3.21572138936771 L 5.781734909178579 -3.21572138936771 L 5.820303869850931 -3.117186553445057 L 5.581939515730986 -3.117186553445057 Z M 5.684699220137183 -2.7917353941320613 L 5.642723107461973 -2.925568324804323 L 5.894852355673464 -2.925568324804323 L 5.946913638277134 -2.7917353941320613 Z M 5.782143767418921 -2.4842739973941566 L 5.745619097948284 -2.6005260237316703 L 6.022007268420124 -2.6005260237316703 L 6.066981674857849 -2.4842739973941566 Z M 6.153523335730442 -2.7917353941320613 L 6.101598339206887 -2.925568324804323 L 6.328105804356886 -2.925568324804323 L 6.393250550651531 -2.7917353941320613 Z M 6.273318800150929 -2.4842739973941566 L 6.228344393713204 -2.6005260237316703 L 6.486197657289496 -2.6005260237316703 L 6.542620094456825 -2.4842739973941566 Z M 6.542211236216483 -2.925568324804323 L 6.759178675758479 -2.925568324804323 L 6.82418713597301 -2.7917353941320613 L 6.606947124270785 -2.7917353941320613 Z M 6.756861812396536 -2.4842739973941566 L 6.700303089149093 -2.6005260237316703 L 6.916861670450748 -2.6005260237316703 L 6.973284107618076 -2.4842739973941566 Z M 7.038156281752491 -2.7917353941320613 L 6.972875249377733 -2.925568324804323 L 7.168173202181553 -2.925568324804323 L 7.2329090902358555 -2.7917353941320613 Z M 7.1875258255577865 -2.4842739973941566 L 7.130967102310343 -2.6005260237316703 L 7.325856196873821 -2.6005260237316703 L 7.38227863404115 -2.4842739973941566 Z" fill="#1192dc" transform="matrix(1,0,0,1,0,0)" fill-rule="nonzero"></path></g></g></g><defs><clipPath id="SvgjsClipPath1001"><path d=" M 0.6258962123737488 -8.341577148547387 h 8.091713434627502 v 8.091577148547387 h -8.091713434627502 Z"></path></clipPath><clipPath id="aa6ed69dd-c7e7-41fb-95e3-12b03e13f5ee7ab394d9-7d8a-4780-97fc-565fbbdc72ad"><path d=" M -0.03195669633807119 0.40785290871182234 L 9.375189983552843 0.40785290871182234 L 9.375189983552843 -8.999293771179094 L -0.03195669633807119 -8.999293771179094 Z"></path></clipPath></defs></svg>