<svg xmlns="http://www.w3.org/2000/svg" version="1.1" xmlns:xlink="http://www.w3.org/1999/xlink" xmlns:svgjs="http://svgjs.dev/svgjs" viewBox="0 0 1.2652163458016894 2.020743817992481"><g transform="matrix(1,0,0,1,0.6326081729008447,2.075728241216761)"><g><path d=" M -0.31048486328125 -1.2432126644410415 Q -0.32048486328125003 -1.2432126644410415 -0.32798486328125004 -1.2502126644410414 Q -0.33548486328125005 -1.2572126644410415 -0.33548486328125005 -1.2682126644410414 L -0.33548486328125005 -1.9182126644410415 Q -0.33548486328125005 -1.9292126644410414 -0.32798486328125004 -1.9362126644410416 Q -0.32048486328125003 -1.9432126644410417 -0.31048486328125 -1.9432126644410417 L -0.21748486328125005 -1.9432126644410417 Q -0.20248486328125004 -1.9432126644410417 -0.19498486328125006 -1.9352126644410417 Q -0.18748486328125005 -1.9272126644410417 -0.18448486328125005 -1.9232126644410417 L -0.0004848632812500253 -1.5842126644410415 L 0.18551513671874992 -1.9232126644410417 Q 0.18751513671874992 -1.9272126644410417 0.19501513671874998 -1.9352126644410417 Q 0.20251513671874993 -1.9432126644410417 0.21751513671874995 -1.9432126644410417 L 0.3105151367187499 -1.9432126644410417 Q 0.3215151367187499 -1.9432126644410417 0.32851513671874993 -1.9362126644410416 Q 0.33551513671874994 -1.9292126644410414 0.33551513671874994 -1.9182126644410415 L 0.33551513671874994 -1.2682126644410414 Q 0.33551513671874994 -1.2572126644410415 0.32851513671874993 -1.2502126644410414 Q 0.3215151367187499 -1.2432126644410415 0.3105151367187499 -1.2432126644410415 L 0.20851513671874994 -1.2432126644410415 Q 0.19851513671874993 -1.2432126644410415 0.19151513671874992 -1.2502126644410414 Q 0.18451513671874992 -1.2572126644410415 0.18451513671874992 -1.2682126644410414 L 0.18451513671874992 -1.6722126644410416 L 0.05751513671874997 -1.4342126644410416 Q 0.052515136718749966 -1.4252126644410414 0.04451513671874996 -1.4182126644410415 Q 0.03651513671874995 -1.4112126644410414 0.02351513671874994 -1.4112126644410414 L -0.023484863281250046 -1.4112126644410414 Q -0.03648486328125006 -1.4112126644410414 -0.044484863281250064 -1.4182126644410415 Q -0.05248486328125007 -1.4252126644410414 -0.057484863281250076 -1.4342126644410416 L -0.18448486328125005 -1.6722126644410416 L -0.18448486328125005 -1.2682126644410414 Q -0.18448486328125005 -1.2572126644410415 -0.19148486328125006 -1.2502126644410414 Q -0.19848486328125006 -1.2432126644410415 -0.20848486328125004 -1.2432126644410415 L -0.31048486328125 -1.2432126644410415" fill="#bf9525" fill-rule="nonzero"></path></g><g clip-path="url(#SvgjsClipPath1001)"><g clip-path="url(#SvgjsClipPath1000869633e0-b2fb-437e-9396-63ea144721d1)"><path d=" M 0.2917325304852757 -0.8494081703049354 C 0.28210123399242615 -0.849328547458094 0.2724874350162586 -0.8485722724974486 0.2629621574544778 -0.8471449325582789 C 0.22425668429795154 -0.9433140630828679 0.131002474921882 -1.0063198615725581 0.027336594144172888 -1.0063417866228477 C -0.05763139392572064 -1.0063768899543877 -0.13697861789302013 -0.9638854929837274 -0.18404507162864764 -0.8931443510531545 C -0.19176252568077617 -0.8943337308887515 -0.19955635662214338 -0.8949594551208326 -0.20736471500781156 -0.8950165581943677 C -0.28978673318807124 -0.8950174833934643 -0.3586249729463287 -0.8322000210230188 -0.36614683964236483 -0.7501219447591951 C -0.44333612900561686 -0.7376262235302793 -0.5000687667453763 -0.6709914720024318 -0.5000925961251251 -0.59279729783584 C -0.5000925961251251 -0.5504929923555179 -0.4832856545946177 -0.5099217092912622 -0.4533697720669452 -0.4800102719170115 C -0.42345388953927265 -0.4500988345427608 -0.38288010942070344 -0.4332979220681401 -0.3405758061681447 -0.43330420846437845 L -0.2888412738874527 -0.433304208464117 C -0.2888412738874527 -0.4347142885261701 -0.2889597680103143 -0.4361480674127959 -0.2889597680103143 -0.43756999688713516 C -0.2889280920061794 -0.4580501039899163 -0.28673164720050626 -0.47846949412727946 -0.28240704301606534 -0.498487825450297 L -0.2747878709160661 -0.5339412670104796 L -0.2276272100171466 -0.5272700478933712 L -0.2240723863312984 -0.5357660765025487 L -0.26199050564701254 -0.56446535305963 L -0.24220198712912416 -0.5948709449859182 C -0.22000816164107828 -0.629071107758947 -0.19080756872259896 -0.6581707304391189 -0.15653073630018255 -0.680245960507706 L -0.12607774672474958 -0.699927834315019 L -0.09750881370281622 -0.6619504679378736 L -0.08900093568135292 -0.6655052916237221 L -0.09552996185102747 -0.7127251995840727 L -0.06005282146626234 -0.7202377269734982 C -0.040304698400562944 -0.7244244230515833 -0.020175175962210856 -0.7265489632970991 0.000011849412286268901 -0.7265771625465944 C 0.020492366823128827 -0.7265414157043847 0.04091174307961498 -0.7243410005232734 0.06092967797543836 -0.7200125881400614 L 0.09639496894791699 -0.7123934160400598 L 0.08972374983080855 -0.6652327551411406 L 0.09821977843998575 -0.6616779314552922 L 0.12690720558478075 -0.6995960507710061 L 0.15731279751106908 -0.679819381665404 C 0.19151656486596103 -0.6576260238166431 0.2206201552012167 -0.6284255022895963 0.24269966244514274 -0.5941481308364623 L 0.26238153625245564 -0.5636832918487432 L 0.2243923204630246 -0.5351143588268097 L 0.22794714414887274 -0.5266064808053464 L 0.2751552026969367 -0.5331355069750211 L 0.2826677300863627 -0.497658366590256 C 0.28686081421698595 -0.47791525982561855 0.28898542952565454 -0.4577889974249959 0.2890071656594585 -0.4376055451239934 C 0.2890071656594585 -0.4359821756407892 0.2889005209488832 -0.4343588061575854 0.2888768221243109 -0.4327354366743812 L 0.2917799281344202 -0.4327354366743812 C 0.347043343986302 -0.4327260057889082 0.40004602167840886 -0.4546751354314206 0.4391231583478197 -0.49375227210083117 C 0.4782002950172305 -0.5328294087702421 0.5001494246597428 -0.585832086462349 0.5001399937742698 -0.6410955023142308 C 0.5001274245657975 -0.6963560279846908 0.4781632110730635 -0.7493482331363451 0.439079229856281 -0.7884144367860216 C 0.3999952486394982 -0.8274806404356985 0.34699305615492704 -0.8494207423729704 0.29173253048519643 -0.8494081703049351 Z" fill="#004a80" transform="matrix(1,0,0,1,0,0)" fill-rule="nonzero"></path></g><g clip-path="url(#SvgjsClipPath1000869633e0-b2fb-437e-9396-63ea144721d1)"><path d=" M 0.09756806076424696 -0.4340981190872901 L 0.13526104124652405 -0.4360295732899343 C 0.1354818521514497 -0.45424223556691834 0.13200291169570666 -0.47231015112038455 0.12503499844356747 -0.4891386391565059 L 0.0893445686376515 -0.47693374450176096 L 0.08039826236160008 -0.4905131709817009 L 0.07144010667326262 -0.5040807480493552 L 0.09670305366735721 -0.5320809092815526 C 0.08397993569592299 -0.545116957105906 0.06874165603262428 -0.5554330305605042 0.05191227522566988 -0.5624035553218381 L 0.03532309802504496 -0.5285497844202767 L 0.01939748791244489 -0.5318083727989709 L 0.0034718777998449246 -0.5350788105899513 L 0.0015404235972007463 -0.57273624283537 C -0.016672444625626393 -0.572959361191888 -0.03474081983599403 -0.5694803322301416 -0.0515686422693713 -0.5625102000324136 L -0.03937559702691201 -0.5268197702264974 L -0.052943174094566 -0.5178734639504461 L -0.06652260057450615 -0.5089271576743948 L -0.09461755710499303 -0.5341901046684892 C -0.10764756526471425 -0.5214644039204896 -0.11795929306564623 -0.5062265887963605 -0.12492835373299216 -0.4893993262268016 L -0.09107458283143094 -0.4728101490261768 L -0.09434502062241135 -0.45688453891357705 L -0.0976154584133917 -0.440958928800977 L -0.13527289065881037 -0.4390274745983327 C -0.13549370156373597 -0.42081481232134876 -0.13201476110799287 -0.40274689676788256 -0.12504684785585374 -0.385918408731761 L -0.08935641804993771 -0.3981114539742201 L -0.08041011177388635 -0.3845438769065658 L -0.07145195608554888 -0.37097629983891167 L -0.09671490307964342 -0.34297613860671405 C -0.08399497468762479 -0.3299362761672022 -0.06875586235289166 -0.31961963900725976 -0.05192412463795604 -0.31265349256642927 L -0.03533494743733118 -0.34650726346799 L -0.019409337324731157 -0.3432486750892957 L -0.003483727212131249 -0.33997823729831533 L -0.0015522730094870707 -0.3023208050528967 C 0.016660595213339957 -0.3020976866963786 0.034728970423707706 -0.3055767156581253 0.05155679285708492 -0.3125468478558534 L 0.03936374761462569 -0.34823727766176926 L 0.05293132468227968 -0.35718358393782057 L 0.06651075116221983 -0.3661298902138719 L 0.09451091239441756 -0.3408669432197772 C 0.10754092055413877 -0.35359264396777657 0.11785264835507081 -0.3688304590919058 0.12482170902241652 -0.38565772166146484 L 0.09096793812085546 -0.40224689886208953 L 0.09423837591183581 -0.41817250897468927 Z M 0.012086400531883923 -0.37526578708650216 C -0.004422029131237626 -0.3720599053969722 -0.021527844552484354 -0.3755434636150924 -0.03546776937261331 -0.38495007955062677 C -0.04940769419274227 -0.3943566954861607 -0.05903977752313766 -0.4089157843931327 -0.06224496273920199 -0.4254243492938202 C -0.06545433223554481 -0.44193455331401754 -0.06197244179751299 -0.45904343803919934 -0.0525655099138051 -0.47298605335655886 C -0.043158578030097317 -0.4869286686739187 -0.028597442556906993 -0.49656250650177436 -0.012086400531883923 -0.4997675619771925 C 0.02229338998775854 -0.5064438799568443 0.05557662761490012 -0.48398803920521993 0.06225681215148815 -0.44960899976987434 C 0.06892566412829526 -0.41522679188454403 0.04646635057627446 -0.3819462691577189 0.012086400531883923 -0.37526578708650216 Z M 0.19013566954373418 -0.5159301603355158 L 0.17688802660780645 -0.5480539170432974 L 0.20997158571076702 -0.5729376828442349 C 0.1908245077871027 -0.6025801818299611 0.16564169742999013 -0.6278518204423018 0.13606680128198312 -0.6471031543433146 L 0.11107639077047005 -0.6140788423017847 L 0.07900003171183301 -0.6274212805360018 L 0.04692367265319608 -0.6407637187702186 L 0.05274173408570104 -0.6818574805786237 C 0.035412224358457145 -0.6856160415846688 0.01773240479411331 -0.6875226498504263 1.1102230246251565e-16 -0.6875451984759808 C -0.017476042595807872 -0.687530556501088 -0.03490261366862274 -0.685687819724017 -0.05199522111167293 -0.6820470711752021 L -0.04630750321431609 -0.6409059117176523 L -0.0784194105098116 -0.6276701181940111 L -0.110531317805307 -0.6144224752580834 L -0.1354150836062445 -0.6475060343610439 C -0.16505274585868374 -0.6283480208542346 -0.19032304362383862 -0.6031625091975746 -0.2095805551053242 -0.5735894005199735 L -0.1765562430637943 -0.5485989900084607 L -0.18989868129801118 -0.5165226309498236 L -0.20324111953222812 -0.4844581213034732 L -0.24433488134063336 -0.490264333323692 C -0.24808360100157906 -0.4729374564511798 -0.2499861741893714 -0.45526219405937185 -0.2500107498257043 -0.4375344486502777 C -0.2499940909504938 -0.4200552177132052 -0.24815539536649456 -0.402625336680449 -0.2445244719372074 -0.3855273781262962 L -0.20338331247966207 -0.39122694543596104 L -0.19013566954373434 -0.3591150381404655 L -0.17688802660780673 -0.32700313084497 L -0.20997158571076735 -0.3021193650440327 C -0.1908214499187902 -0.27247933177597194 -0.1656392209605007 -0.24720827661324418 -0.13606680128198317 -0.22795389354495277 L -0.11107639077047021 -0.261013753823341 L -0.07900003171183323 -0.24767131558912403 L -0.04692367265319636 -0.23432887735490704 L -0.05274173408570115 -0.19323511554650175 C -0.035412224358457145 -0.18947655454045642 -0.01773240479411342 -0.18756994627469936 -1.1102230246251565e-16 -0.18754739764914463 C 0.017476074846877743 -0.18756143266930247 0.03490270907374171 -0.1894041761244677 0.051995221111672874 -0.1930455249499231 L 0.04630750321431587 -0.23418668440747292 L 0.07841941050981138 -0.24742247793111438 L 0.11053131780530678 -0.260670120867042 L 0.1354150836062442 -0.22758656176408143 C 0.16505274585868357 -0.24674457527089055 0.19032304362383845 -0.2719300869275506 0.20958055510532403 -0.3015031956051517 L 0.17655624306379403 -0.32649360611666467 L 0.18989868129801102 -0.3585699651753016 L 0.203241119532228 -0.39063447482165226 L 0.2443348813406332 -0.38482826280143334 C 0.248084257293678 -0.402159039980442 0.24998683320888315 -0.41983829968519815 0.2500107498257039 -0.4375699968871345 C 0.24999352576017508 -0.45504528060170746 0.248154831854703 -0.4724711744617991 0.24452447193721916 -0.4895652179987735 L 0.20338331247966213 -0.4838656506891643 Z M 0 -0.28280482301759047 C -0.04104191901066867 -0.28280482109170324 -0.08040217544104111 -0.2991119033128927 -0.10941874974555554 -0.32813736681838857 C -0.1384353240500698 -0.3571628303238845 -0.15473034937472663 -0.3965280798023537 -0.1547177762204 -0.43756999688713516 C -0.15471123232503298 -0.523013637701463 -0.08544364106471147 -0.5922759239458952 1.0313971898767704e-13 -0.5922759236952486 C 0.08544364106481461 -0.5922759239458384 0.15471123232508988 -0.5230136377013599 0.15471777622039995 -0.4375699968871348 C 0.1547303493747273 -0.3965280798023565 0.1384353240500712 -0.35716283032388707 0.10941874974555732 -0.3281373668183907 C 0.08040217544104356 -0.29911190331289395 0.041041919010671224 -0.2828048210917039 2.6645352591003757e-15 -0.28280482301759047 Z M 0.00491750609875663 -0.41224780283160967 C -0.009037273703653481 -0.40953930252690085 -0.022546874097761183 -0.4186517852426751 -0.025262946994094537 -0.43260509313923357 C -0.027970918609811324 -0.4465637031244497 -0.018851933012195232 -0.46007507969055106 -0.00489380727418437 -0.4627855462320849 C 0.0018080561517171967 -0.4640895202091043 0.008753417901938731 -0.4626771012755587 0.014413678628554472 -0.45885914763271374 C 0.02007393935517021 -0.45504119398986875 0.02398520417825678 -0.44913061156772427 0.025286645818666798 -0.44242825592446056 C 0.027994617434383584 -0.42846964593924486 0.018875631836767437 -0.4149582693731435 0.004917506098756519 -0.41224780283160967 Z" fill="#004a80" transform="matrix(1,0,0,1,0,0)" fill-rule="nonzero"></path></g></g></g><defs><clipPath id="SvgjsClipPath1001"><path d=" M -0.5000925961251251 -1.0063180877982751 h 1.0001851922502503 v 0.818818087798275 h -1.0001851922502503 Z"></path></clipPath><clipPath id="SvgjsClipPath1000869633e0-b2fb-437e-9396-63ea144721d1"><path d=" M -0.5000925961251251 -1.0063180877982751 L 0.5000925961251251 -1.0063180877982751 L 0.5000925961251251 -0.1875000000000001 L -0.5000925961251251 -0.1875000000000001 Z"></path></clipPath></defs></svg>