<svg xmlns="http://www.w3.org/2000/svg" version="1.1" xmlns:xlink="http://www.w3.org/1999/xlink" xmlns:svgjs="http://svgjs.dev/svgjs" viewBox="0 0 25.769938346567148 11.191593081227976"><g transform="matrix(1,0,0,1,5.762891536564826,4.5247965406139885)"><rect width="25.769938346567148" height="25.769938346567148" x="-5.762891536564826" y="-11.813969173283574" fill="#ffffff"></rect><g transform="matrix(1,0,0,1,0,0)"><g clip-path="url(#SvgjsClipPath1001)"><path d=" M -4.372386899414062 -3.1342919034632244 L 18.61654217285156 -3.1342919034632244 L 18.61654217285156 5.276291903463224 L -4.372386899414062 5.276291903463224 Z" fill="#ffffff" transform="matrix(1,0,0,1,0,0)" fill-rule="nonzero"></path></g></g><g transform="matrix(1,0,0,1,0,0)"><path d=" M 1.794 2.1419999999999995 L 1.794 1.0199999999999994 L 1.437 1.8089999999999995 L 1.125 1.8089999999999995 L 0.768 1.0199999999999994 L 0.768 2.1419999999999995 L 0.183 2.1419999999999995 L 0.183 0.011999999999999567 L 0.8220000000000001 0.011999999999999567 L 1.281 1.0139999999999993 L 1.743 0.011999999999999567 L 2.379 0.011999999999999567 L 2.379 2.1419999999999995 L 1.794 2.1419999999999995 M 3.7020117187499997 2.1599999999999993 Q 3.45901171875 2.1599999999999993 3.26101171875 2.0684999999999993 Q 3.06301171875 1.9769999999999994 2.92051171875 1.8224999999999993 Q 2.7780117187499997 1.6679999999999995 2.70151171875 1.4744999999999995 Q 2.6250117187499997 1.2809999999999995 2.6250117187499997 1.0739999999999994 Q 2.6250117187499997 0.8609999999999995 2.7060117187499997 0.6689999999999994 Q 2.78701171875 0.4769999999999994 2.93251171875 0.32549999999999946 Q 3.07801171875 0.1739999999999995 3.27751171875 0.0869999999999993 Q 3.47701171875 -4.440892098500626e-16 3.71401171875 -4.440892098500626e-16 Q 3.95701171875 -4.440892098500626e-16 4.15501171875 0.09149999999999947 Q 4.35301171875 0.18299999999999939 4.49401171875 0.3389999999999995 Q 4.63501171875 0.49499999999999944 4.71151171875 0.6884999999999994 Q 4.78801171875 0.8819999999999995 4.78801171875 1.0859999999999994 Q 4.78801171875 1.2959999999999994 4.70851171875 1.4879999999999995 Q 4.62901171875 1.6799999999999995 4.48351171875 1.8314999999999995 Q 4.33801171875 1.9829999999999994 4.140011718749999 2.0714999999999995 Q 3.94201171875 2.1599999999999993 3.7020117187499997 2.1599999999999993 M 3.21901171875 1.0799999999999994 Q 3.21901171875 1.1879999999999993 3.24901171875 1.2884999999999995 Q 3.2790117187499996 1.3889999999999993 3.33901171875 1.4684999999999995 Q 3.3990117187499997 1.5479999999999996 3.4905117187499997 1.5944999999999996 Q 3.58201171875 1.6409999999999996 3.70801171875 1.6409999999999996 Q 3.8340117187500002 1.6409999999999996 3.92701171875 1.5929999999999995 Q 4.02001171875 1.5449999999999995 4.07851171875 1.4624999999999995 Q 4.13701171875 1.3799999999999994 4.16551171875 1.2794999999999994 Q 4.19401171875 1.1789999999999994 4.19401171875 1.0739999999999994 Q 4.19401171875 0.9659999999999995 4.16401171875 0.8669999999999993 Q 4.13401171875 0.7679999999999993 4.0740117187500005 0.6884999999999994 Q 4.01401171875 0.6089999999999993 3.92101171875 0.5639999999999994 Q 3.82801171875 0.5189999999999995 3.70501171875 0.5189999999999995 Q 3.57901171875 0.5189999999999995 3.48751171875 0.5669999999999995 Q 3.3960117187499996 0.6149999999999993 3.33601171875 0.6944999999999995 Q 3.27601171875 0.7739999999999994 3.2475117187499998 0.8744999999999994 Q 3.21901171875 0.9749999999999994 3.21901171875 1.0799999999999994 M 5.0340556640625 2.1419999999999995 L 5.0340556640625 0.011999999999999567 L 6.012055664062499 0.011999999999999567 Q 6.1680556640625 0.011999999999999567 6.3000556640625 0.07499999999999929 Q 6.432055664062499 0.13799999999999946 6.528055664062499 0.2444999999999995 Q 6.6240556640624995 0.3509999999999993 6.6765556640625 0.48299999999999943 Q 6.7290556640625 0.6149999999999993 6.7290556640625 0.7499999999999993 Q 6.7290556640625 0.8729999999999993 6.6930556640625 0.9869999999999994 Q 6.6570556640625 1.1009999999999995 6.5880556640625 1.1954999999999996 Q 6.5190556640625 1.2899999999999996 6.4230556640625 1.3589999999999995 L 6.8730556640625 2.1419999999999995 L 6.2310556640625 2.1419999999999995 L 5.8560556640625 1.4879999999999995 L 5.6190556640625 1.4879999999999995 L 5.6190556640625 2.1419999999999995 L 5.0340556640625 2.1419999999999995 M 5.6190556640625 0.9779999999999995 L 5.9880556640625 0.9779999999999995 Q 6.0240556640625 0.9779999999999995 6.057055664062499 0.9509999999999994 Q 6.0900556640625 0.9239999999999995 6.1125556640625 0.8729999999999993 Q 6.1350556640625 0.8219999999999994 6.1350556640625 0.7499999999999993 Q 6.1350556640625 0.6749999999999994 6.1095556640624995 0.6254999999999995 Q 6.0840556640625 0.5759999999999994 6.0465556640625 0.5489999999999995 Q 6.009055664062499 0.5219999999999994 5.9730556640625 0.5219999999999994 L 5.6190556640625 0.5219999999999994 L 5.6190556640625 0.9779999999999995 M 7.0560190429687495 2.1419999999999995 L 7.0560190429687495 0.011999999999999567 L 8.03401904296875 0.011999999999999567 Q 8.19001904296875 0.011999999999999567 8.32201904296875 0.07499999999999929 Q 8.45401904296875 0.13799999999999946 8.55001904296875 0.2444999999999995 Q 8.64601904296875 0.3509999999999993 8.69851904296875 0.48299999999999943 Q 8.75101904296875 0.6149999999999993 8.75101904296875 0.7499999999999993 Q 8.75101904296875 0.8729999999999993 8.71501904296875 0.9869999999999994 Q 8.67901904296875 1.1009999999999995 8.61001904296875 1.1954999999999996 Q 8.541019042968749 1.2899999999999996 8.445019042968749 1.3589999999999995 L 8.89501904296875 2.1419999999999995 L 8.25301904296875 2.1419999999999995 L 7.8780190429687496 1.4879999999999995 L 7.6410190429687495 1.4879999999999995 L 7.6410190429687495 2.1419999999999995 L 7.0560190429687495 2.1419999999999995 M 7.6410190429687495 0.9779999999999995 L 8.01001904296875 0.9779999999999995 Q 8.04601904296875 0.9779999999999995 8.07901904296875 0.9509999999999994 Q 8.11201904296875 0.9239999999999995 8.13451904296875 0.8729999999999993 Q 8.15701904296875 0.8219999999999994 8.15701904296875 0.7499999999999993 Q 8.15701904296875 0.6749999999999994 8.13151904296875 0.6254999999999995 Q 8.10601904296875 0.5759999999999994 8.068519042968749 0.5489999999999995 Q 8.03101904296875 0.5219999999999994 7.9950190429687495 0.5219999999999994 L 7.6410190429687495 0.5219999999999994 L 7.6410190429687495 0.9779999999999995 M 10.01106591796875 2.1599999999999993 Q 9.76806591796875 2.1599999999999993 9.57006591796875 2.0684999999999993 Q 9.372065917968749 1.9769999999999994 9.229565917968749 1.8224999999999993 Q 9.087065917968749 1.6679999999999995 9.01056591796875 1.4744999999999995 Q 8.93406591796875 1.2809999999999995 8.93406591796875 1.0739999999999994 Q 8.93406591796875 0.8609999999999995 9.01506591796875 0.6689999999999994 Q 9.09606591796875 0.4769999999999994 9.24156591796875 0.32549999999999946 Q 9.38706591796875 0.1739999999999995 9.58656591796875 0.0869999999999993 Q 9.786065917968749 -4.440892098500626e-16 10.023065917968749 -4.440892098500626e-16 Q 10.26606591796875 -4.440892098500626e-16 10.46406591796875 0.09149999999999947 Q 10.66206591796875 0.18299999999999939 10.80306591796875 0.3389999999999995 Q 10.94406591796875 0.49499999999999944 11.02056591796875 0.6884999999999994 Q 11.097065917968749 0.8819999999999995 11.097065917968749 1.0859999999999994 Q 11.097065917968749 1.2959999999999994 11.01756591796875 1.4879999999999995 Q 10.93806591796875 1.6799999999999995 10.79256591796875 1.8314999999999995 Q 10.64706591796875 1.9829999999999994 10.449065917968749 2.0714999999999995 Q 10.251065917968749 2.1599999999999993 10.01106591796875 2.1599999999999993 M 9.52806591796875 1.0799999999999994 Q 9.52806591796875 1.1879999999999993 9.558065917968749 1.2884999999999995 Q 9.58806591796875 1.3889999999999993 9.648065917968749 1.4684999999999995 Q 9.70806591796875 1.5479999999999996 9.79956591796875 1.5944999999999996 Q 9.89106591796875 1.6409999999999996 10.01706591796875 1.6409999999999996 Q 10.14306591796875 1.6409999999999996 10.23606591796875 1.5929999999999995 Q 10.32906591796875 1.5449999999999995 10.38756591796875 1.4624999999999995 Q 10.446065917968749 1.3799999999999994 10.47456591796875 1.2794999999999994 Q 10.50306591796875 1.1789999999999994 10.50306591796875 1.0739999999999994 Q 10.50306591796875 0.9659999999999995 10.47306591796875 0.8669999999999993 Q 10.443065917968749 0.7679999999999993 10.38306591796875 0.6884999999999994 Q 10.32306591796875 0.6089999999999993 10.23006591796875 0.5639999999999994 Q 10.13706591796875 0.5189999999999995 10.01406591796875 0.5189999999999995 Q 9.88806591796875 0.5189999999999995 9.79656591796875 0.5669999999999995 Q 9.70506591796875 0.6149999999999993 9.645065917968749 0.6944999999999995 Q 9.58506591796875 0.7739999999999994 9.556565917968749 0.8744999999999994 Q 9.52806591796875 0.9749999999999994 9.52806591796875 1.0799999999999994 M 11.925134765625 0.011999999999999567 L 12.462134765624999 0.011999999999999567 L 12.657134765624999 0.6689999999999994 L 12.855134765625 0.011999999999999567 L 13.392134765624998 0.011999999999999567 L 13.032134765624999 1.0289999999999995 L 13.185134765625 1.4639999999999995 L 13.644134765625 0.011999999999999567 L 14.280134765625 0.011999999999999567 L 13.476134765625 2.1419999999999995 L 12.969134765625 2.1419999999999995 L 12.657134765624999 1.3799999999999994 L 12.348134765625 2.1419999999999995 L 11.841134765625 2.1419999999999995 L 11.037134765625 0.011999999999999567 L 11.670134765624999 0.011999999999999567 L 12.132134765624999 1.4639999999999995 L 12.279134765624999 1.0289999999999995 L 11.925134765625 0.011999999999999567" fill="#202020" fill-rule="nonzero"></path></g><g transform="matrix(1,0,0,1,0,0)"></g></g><defs><clipPath id="SvgjsClipPath1001"><path d=" M -4.372386899414062 -3.1342919034632244 h 22.988929072265623 v 8.410583806926448 h -22.988929072265623 Z"></path></clipPath></defs></svg>